<svg width="38" height="32" viewBox="0 0 38 32" fill="none" xmlns="http://www.w3.org/2000/svg">
<path d="M36 1.5C32.7333 3.76666 30.1333 5.86666 28.2 7.8C26.2667 9.66667 25.3 11.8 25.3 14.2C25.3 15.2667 25.4667 16.1333 25.8 16.8C26.1333 17.4667 26.4667 17.9667 26.8 18.3C27.4 17.9 28.0667 17.6333 28.8 17.5C29.5333 17.3667 30.2667 17.3 31 17.3C31.7333 17.3 32.5 17.4333 33.3 17.7C34.1 17.9667 34.8333 18.4 35.5 19C36.1667 19.5333 36.7333 20.2667 37.2 21.2C37.6667 22.0667 37.9 23.1333 37.9 24.4C37.9 25.6667 37.6667 26.7667 37.2 27.7C36.7333 28.5667 36.1333 29.3 35.4 29.9C34.6667 30.4333 33.8333 30.8333 32.9 31.1C32.0333 31.3667 31.1667 31.5 30.3 31.5C27.7667 31.5 25.6 30.4667 23.8 28.4C22 26.3333 21.1 23.4 21.1 19.6C21.1 17 21.5667 14.7 22.5 12.7C23.5 10.7 24.7 8.93333 26.1 7.4C27.5 5.86666 29.0333 4.53333 30.7 3.4C32.3667 2.2 33.9 1.13333 35.3 0.199996L36 1.5ZM15.3 1.5C12.0333 3.76666 9.43333 5.86666 7.5 7.8C5.56667 9.66667 4.6 11.8 4.6 14.2C4.6 15.2667 4.76667 16.1333 5.1 16.8C5.43333 17.4667 5.76667 17.9667 6.1 18.3C6.7 17.9 7.36667 17.6333 8.1 17.5C8.83333 17.3667 9.56667 17.3 10.3 17.3C11.0333 17.3 11.8 17.4333 12.6 17.7C13.4 17.9667 14.1333 18.4 14.8 19C15.4667 19.5333 16.0333 20.2667 16.5 21.2C16.9667 22.0667 17.2 23.1333 17.2 24.4C17.2 25.6667 16.9667 26.7667 16.5 27.7C16.0333 28.5667 15.4333 29.3 14.7 29.9C13.9667 30.4333 13.1333 30.8333 12.2 31.1C11.3333 31.3667 10.4667 31.5 9.6 31.5C7.06667 31.5 4.9 30.4667 3.1 28.4C1.3 26.3333 0.4 23.4 0.4 19.6C0.4 17 0.866667 14.7 1.8 12.7C2.8 10.7 4 8.93333 5.4 7.4C6.8 5.86666 8.33333 4.53333 10 3.4C11.6667 2.2 13.2 1.13333 14.6 0.199996L15.3 1.5Z" fill="#0D0E0E"/>
</svg>
