<svg width="24" height="24" viewBox="0 0 24 24" fill="none" xmlns="http://www.w3.org/2000/svg">
<g id="openmoji:instagram">
<path id="Vector" d="M15.595 4.20459H8.40505C6.08505 4.20459 4.20471 6.08526 4.20471 8.40492V15.5949C4.20471 17.9149 6.08538 19.7953 8.40538 19.7953H15.5947C17.9147 19.7953 19.7954 17.9146 19.7954 15.5946V8.40492C19.7954 6.08492 17.915 4.20459 15.595 4.20459Z" fill="#FAFAFA"/>
<path id="Vector_2" d="M15.595 4.20459H8.40505C6.08505 4.20459 4.20471 6.08526 4.20471 8.40492V15.5949C4.20471 17.9149 6.08538 19.7953 8.40538 19.7953H15.5947C17.9147 19.7953 19.7954 17.9146 19.7954 15.5946V8.40492C19.7954 6.08492 17.915 4.20459 15.595 4.20459Z" stroke="#0D0E0E" stroke-width="0.666667" stroke-miterlimit="10"/>
<path id="Vector_3" d="M12 15.7632C14.0785 15.7632 15.7634 14.0783 15.7634 11.9999C15.7634 9.92147 14.0785 8.23657 12 8.23657C9.9216 8.23657 8.23669 9.92147 8.23669 11.9999C8.23669 14.0783 9.9216 15.7632 12 15.7632Z" stroke="#0D0E0E" stroke-width="0.666667" stroke-miterlimit="10"/>
<path id="Vector_4" d="M16.5696 8.23669C17.015 8.23669 17.376 7.87568 17.376 7.43036C17.376 6.98503 17.015 6.62402 16.5696 6.62402C16.1243 6.62402 15.7633 6.98503 15.7633 7.43036C15.7633 7.87568 16.1243 8.23669 16.5696 8.23669Z" fill="#0D0E0E"/>
</g>
</svg>
