<svg width="24" height="24" viewBox="0 0 24 24" fill="none" xmlns="http://www.w3.org/2000/svg">
<g id="ph:whatsapp-logo-thin">
<path id="Vector" d="M17.4178 13.9144L14.4178 12.4144C14.3588 12.385 14.293 12.3716 14.2272 12.3757C14.1614 12.3799 14.0978 12.4013 14.0428 12.4378L12.4828 13.4784C11.6253 13.0672 10.9338 12.3757 10.5225 11.5181L11.5632 9.95813C11.5997 9.9032 11.6211 9.83961 11.6252 9.77377C11.6293 9.70793 11.616 9.64217 11.5866 9.58313L10.0866 6.58313C10.0555 6.5205 10.0075 6.46783 9.948 6.43106C9.88853 6.39428 9.81996 6.37486 9.75003 6.375C8.85493 6.375 7.99648 6.73058 7.36355 7.36351C6.73061 7.99645 6.37503 8.85489 6.37503 9.75C6.37727 11.8379 7.20767 13.8396 8.68403 15.316C10.1604 16.7924 12.1621 17.6228 14.25 17.625C15.1451 17.625 16.0036 17.2694 16.6365 16.6365C17.2695 16.0035 17.625 15.1451 17.625 14.25C17.6251 14.1803 17.6057 14.112 17.5691 14.0527C17.5325 13.9935 17.4801 13.9456 17.4178 13.9144ZM14.25 16.875C12.361 16.873 10.5499 16.1217 9.21409 14.7859C7.87832 13.4502 7.12702 11.6391 7.12503 9.75C7.12492 9.093 7.37118 8.45985 7.81518 7.97559C8.25917 7.49132 8.86862 7.19116 9.52316 7.13437L10.8169 9.72281L9.78566 11.2734C9.75129 11.3246 9.73005 11.3834 9.72384 11.4448C9.71763 11.5061 9.72662 11.568 9.75003 11.625C10.2483 12.8095 11.1905 13.7518 12.375 14.25C12.4321 14.2737 12.4941 14.2829 12.5556 14.2769C12.6171 14.2708 12.6762 14.2497 12.7275 14.2153L14.2782 13.1841L16.8666 14.4778C16.8096 15.1323 16.5092 15.7417 16.0247 16.1855C15.5403 16.6293 14.907 16.8754 14.25 16.875ZM12 2.625C10.3679 2.6247 8.76402 3.05048 7.34695 3.86024C5.92989 4.67 4.74878 5.83567 3.92044 7.24196C3.09211 8.64824 2.64525 10.2464 2.62408 11.8784C2.60291 13.5104 3.00815 15.1196 3.79972 16.5469L2.6841 19.8928C2.61799 20.091 2.6084 20.3037 2.65639 20.5071C2.70438 20.7105 2.80807 20.8965 2.95582 21.0442C3.10357 21.192 3.28955 21.2956 3.49292 21.3436C3.69629 21.3916 3.909 21.382 4.10722 21.3159L7.45316 20.2003C8.70477 20.8938 10.0985 21.2916 11.5276 21.3632C12.9567 21.4349 14.3833 21.1784 15.698 20.6135C17.0126 20.0486 18.1806 19.1903 19.1123 18.1043C20.044 17.0183 20.7147 15.7334 21.0731 14.3481C21.4315 12.9628 21.468 11.5138 21.1799 10.1122C20.8917 8.71065 20.2866 7.3936 19.4108 6.26202C18.535 5.13044 17.4118 4.21434 16.1273 3.58392C14.8427 2.9535 13.4309 2.62548 12 2.625ZM12 20.625C10.4836 20.6255 8.99384 20.2261 7.68097 19.4672C7.62392 19.4343 7.5593 19.4169 7.49347 19.4166C7.45297 19.4165 7.41274 19.4232 7.37441 19.4363L3.87003 20.6044C3.80396 20.6264 3.73306 20.6296 3.66527 20.6136C3.59748 20.5976 3.53548 20.5631 3.48623 20.5138C3.43698 20.4646 3.40242 20.4026 3.38642 20.3348C3.37043 20.267 3.37362 20.1961 3.39566 20.13L4.56378 16.6256C4.58063 16.5752 4.58659 16.5219 4.58125 16.469C4.57592 16.4162 4.55942 16.3651 4.53285 16.3191C3.58194 14.6754 3.20005 12.7638 3.44642 10.881C3.69279 8.99811 4.55365 7.24917 5.89544 5.90549C7.23723 4.56181 8.98496 3.6985 10.8675 3.44948C12.75 3.20047 14.6621 3.57967 16.3071 4.52826C17.9521 5.47685 19.2381 6.94181 19.9655 8.69586C20.693 10.4499 20.8212 12.395 20.3304 14.2294C19.8396 16.0638 18.7571 17.6849 17.2509 18.8413C15.7447 19.9977 13.899 20.6247 12 20.625Z" fill="#0D0E0E"/>
</g>
</svg>
